<svg width="65" height="25" viewBox="0 0 65 25" fill="none" xmlns="http://www.w3.org/2000/svg">
<path d="M10.8885 5.42431C11.6103 5.18373 12.3802 5.05542 13.1789 5.05542C16.6753 5.05542 19.5944 7.53823 20.2616 10.839L25.2176 9.82856C24.082 4.22141 19.1229 0 13.1789 0C11.8156 0 10.51 0.221335 9.28467 0.631928L10.8885 5.42431Z" fill="url(#paint0_linear_2005_589)"/>
<path d="M5.04066 21.4824L8.39276 17.694C6.89795 16.3692 5.95487 14.4349 5.95487 12.2793C5.95487 10.1269 6.89795 8.19263 8.39276 6.87103L5.04066 3.07947C2.50012 5.33131 0.89624 8.61926 0.89624 12.2793C0.89624 15.9426 2.50012 19.2305 5.04066 21.4824" fill="url(#paint1_linear_2005_589)"/>
<path d="M20.2616 13.7292C19.5912 17.0268 16.6753 19.5064 13.1821 19.5064C12.3802 19.5064 11.6071 19.3781 10.8885 19.1343L9.28467 23.9331C10.51 24.3405 11.8188 24.5618 13.1821 24.5618C19.1196 24.5618 24.0756 20.3468 25.2176 14.7461L20.2616 13.7292Z" fill="url(#paint2_linear_2005_589)"/>
<path d="M29.5513 17.8512C29.3877 17.5882 29.1696 17.1679 29.0349 16.8568C28.249 15.0348 28.2137 13.1486 28.8745 11.3395C29.6026 9.35386 30.9948 7.83659 32.7943 7.06031C35.0558 6.08836 37.5547 6.27762 39.7231 7.56393C41.0992 8.35304 42.0744 9.57198 42.8154 11.2978C42.9084 11.5191 42.9918 11.7533 43.0752 11.9553L29.5513 17.8512ZM34.0678 9.98899C32.4607 10.6787 31.6331 12.1863 31.8064 13.9506L38.6068 11.0219C37.436 9.64897 35.9155 9.19347 34.0678 9.98899V9.98899ZM39.4536 16.3596C39.4504 16.3596 39.4504 16.3628 39.4504 16.3628L39.3093 16.2666C38.9019 16.9242 38.27 17.4599 37.4713 17.8063C35.9508 18.4671 34.5426 18.2971 33.5289 17.4085L33.4359 17.5497C33.4359 17.5497 33.4359 17.5465 33.4327 17.5465L31.7069 20.1287C32.1368 20.427 32.5955 20.6772 33.0766 20.8793C34.982 21.6716 36.9324 21.6331 38.8538 20.7991C40.2428 20.1961 41.3334 19.2787 42.0776 18.1142L39.4536 16.3596ZM47.8002 3.26233V17.6138L50.0328 18.5184L48.7658 21.476L46.3022 20.4495C45.7505 20.2089 45.372 19.8432 45.0897 19.4294C44.817 19.0092 44.6149 18.4286 44.6149 17.6523V3.26233H47.8002ZM53.5806 13.9602C53.5806 12.738 54.1227 11.641 54.976 10.8968L52.6856 8.34341C51.1331 9.71633 50.1547 11.7212 50.1547 13.9538C50.1515 16.1896 51.1299 18.1976 52.6792 19.5706L54.9664 17.0172C54.1163 16.2698 53.5806 15.1791 53.5806 13.9602V13.9602ZM57.648 18.0308C57.199 18.0308 56.7627 17.9538 56.3585 17.8191L55.2647 21.0686C56.0121 21.3188 56.8108 21.4567 57.6448 21.4567C61.2696 21.4599 64.2945 18.8873 64.997 15.471L61.6353 14.7846C61.2535 16.6419 59.6144 18.034 57.648 18.0308V18.0308ZM57.6577 6.46367C56.8268 6.46367 56.0281 6.59839 55.2807 6.84539L56.3649 10.0981C56.7723 9.96333 57.2054 9.88955 57.6544 9.88955C59.624 9.89276 61.2664 11.2913 61.6385 13.1518L65.0002 12.4718C64.3105 9.04912 61.2856 6.46688 57.6577 6.46367V6.46367Z" fill="url(#paint3_linear_2005_589)"/>
<defs>
<linearGradient id="paint0_linear_2005_589" x1="17.2511" y1="0" x2="17.2511" y2="10.839" gradientUnits="userSpaceOnUse">
<stop stop-color="white"/>
<stop offset="1" stop-color="white" stop-opacity="0.75"/>
</linearGradient>
<linearGradient id="paint1_linear_2005_589" x1="4.6445" y1="3.07947" x2="4.6445" y2="21.4824" gradientUnits="userSpaceOnUse">
<stop stop-color="white"/>
<stop offset="1" stop-color="white" stop-opacity="0.75"/>
</linearGradient>
<linearGradient id="paint2_linear_2005_589" x1="17.2511" y1="13.7292" x2="17.2511" y2="24.5618" gradientUnits="userSpaceOnUse">
<stop stop-color="white"/>
<stop offset="1" stop-color="white" stop-opacity="0.75"/>
</linearGradient>
<linearGradient id="paint3_linear_2005_589" x1="46.7049" y1="3.26233" x2="46.7049" y2="21.476" gradientUnits="userSpaceOnUse">
<stop stop-color="white"/>
<stop offset="1" stop-color="white" stop-opacity="0.75"/>
</linearGradient>
</defs>
</svg>




 

